#N canvas 252 22 772 614 10;
#X obj 23 17 dumpOSC 8000;
#X obj 176 34 print osc;
#X obj 23 50 OSCroute /fingerplay;
#X obj 23 81 OSCroute /control;
#N canvas 0 22 450 300 getfromXYcontoller 0;
#X obj 24 123 OSCroute /0 /1 /2;
#X obj 140 123 OSCroute /3 /4 /5;
#X obj 24 68 inlet;
#X floatatom 57 146 5 0 0 0 - - -;
#X floatatom 90 146 5 0 0 0 - - -;
#X floatatom 173 145 5 0 0 0 - - -;
#X floatatom 206 145 5 0 0 0 - - -;
#X connect 0 1 3 0;
#X connect 0 2 4 0;
#X connect 1 1 5 0;
#X connect 1 2 6 0;
#X connect 2 0 0 0;
#X connect 2 0 1 0;
#X restore 26 231 pd getfromXYcontoller;
#N canvas 0 22 450 300 getfromSliders 0;
#X obj 24 68 inlet;
#X floatatom 64 145 5 0 0 0 - - -;
#X obj 24 123 OSCroute /6 /7;
#X floatatom 158 144 5 0 0 0 - - -;
#X obj 118 123 OSCroute /8 /9;
#X floatatom 257 144 5 0 0 0 - - -;
#X floatatom 360 143 5 0 0 0 - - -;
#X obj 211 123 OSCroute /10 /11;
#X obj 314 123 OSCroute /12 /13;
#X connect 0 0 2 0;
#X connect 0 0 4 0;
#X connect 0 0 7 0;
#X connect 0 0 8 0;
#X connect 2 1 1 0;
#X connect 4 1 3 0;
#X connect 7 1 5 0;
#X connect 8 1 6 0;
#X restore 108 186 pd getfromSliders;
#N canvas 0 22 657 583 getVelFromPads 0;
#X obj -191 104 inlet;
#X floatatom 24 145 5 0 0 0 - - -;
#X floatatom 106 146 5 0 0 0 - - -;
#X floatatom 187 146 5 0 0 0 - - -;
#X floatatom 269 147 5 0 0 0 - - -;
#X floatatom 21 244 5 0 0 0 - - -;
#X floatatom 104 244 5 0 0 0 - - -;
#X floatatom 185 244 5 0 0 0 - - -;
#X floatatom 266 245 5 0 0 0 - - -;
#X floatatom 17 343 5 0 0 0 - - -;
#X floatatom 100 343 5 0 0 0 - - -;
#X floatatom 181 343 5 0 0 0 - - -;
#X floatatom 262 344 5 0 0 0 - - -;
#X floatatom 16 429 5 0 0 0 - - -;
#X obj 16 407 OSCroute /14;
#X floatatom 99 429 5 0 0 0 - - -;
#X floatatom 180 429 5 0 0 0 - - -;
#X floatatom 261 430 5 0 0 0 - - -;
#X obj 99 407 OSCroute /15;
#X obj 180 407 OSCroute /16;
#X obj 261 408 OSCroute /17;
#X obj 17 321 OSCroute /18;
#X obj 100 321 OSCroute /19;
#X obj 181 321 OSCroute /20;
#X obj 262 322 OSCroute /21;
#X obj 21 222 OSCroute /22;
#X obj 104 222 OSCroute /23;
#X obj 185 222 OSCroute /24;
#X obj 266 223 OSCroute /25;
#X obj 24 123 OSCroute /26;
#X obj 106 124 OSCroute /27;
#X obj 188 124 OSCroute /28;
#X obj 269 125 OSCroute /29;
#X connect 0 0 14 0;
#X connect 0 0 18 0;
#X connect 0 0 19 0;
#X connect 0 0 20 0;
#X connect 0 0 21 0;
#X connect 0 0 22 0;
#X connect 0 0 23 0;
#X connect 0 0 24 0;
#X connect 0 0 25 0;
#X connect 0 0 26 0;
#X connect 0 0 27 0;
#X connect 0 0 28 0;
#X connect 0 0 29 0;
#X connect 0 0 30 0;
#X connect 0 0 31 0;
#X connect 0 0 32 0;
#X connect 14 0 13 0;
#X connect 18 0 15 0;
#X connect 19 0 16 0;
#X connect 20 0 17 0;
#X connect 21 0 9 0;
#X connect 22 0 10 0;
#X connect 23 0 11 0;
#X connect 24 0 12 0;
#X connect 25 0 5 0;
#X connect 26 0 6 0;
#X connect 27 0 7 0;
#X connect 28 0 8 0;
#X connect 29 0 1 0;
#X connect 30 0 2 0;
#X connect 31 0 3 0;
#X connect 32 0 4 0;
#X restore 173 141 pd getVelFromPads;
#X connect 0 0 1 0;
#X connect 0 0 2 0;
#X connect 2 0 3 0;
#X connect 3 0 4 0;
#X connect 3 0 5 0;
#X connect 3 0 6 0;
#X coords 0 0 1 1 85 60 0;
